<svg width="367" height="126" viewBox="0 0 367 126" fill="none" xmlns="http://www.w3.org/2000/svg">
<path d="M0 30.5C0 26.0817 3.58172 22.5 8 22.5H27V103.5H8C3.58172 103.5 0 99.9183 0 95.5V30.5Z" fill="#E11D48"/>
<path d="M35 8C35 3.58172 38.5817 0 43 0H81V126H43C38.5817 126 35 122.418 35 118V8Z" fill="#E11D48"/>
<path d="M99.296 40.3H105.456V56.26H112.064V40.3H118.224V79.5H112.064V61.86H105.456V79.5H99.296V40.3ZM131.772 80.06C128.785 80.06 126.508 79.22 124.94 77.54C123.372 75.8227 122.588 73.3773 122.588 70.204V40.3H128.748V70.652C128.748 71.996 129.009 72.9667 129.532 73.564C130.092 74.1613 130.876 74.46 131.884 74.46C132.892 74.46 133.657 74.1613 134.18 73.564C134.74 72.9667 135.02 71.996 135.02 70.652V40.3H140.956V70.204C140.956 73.3773 140.172 75.8227 138.604 77.54C137.036 79.22 134.758 80.06 131.772 80.06ZM145.343 40.3H154.135L158.055 68.356H158.167L162.087 40.3H170.879V79.5H165.055V49.82H164.943L160.463 79.5H155.311L150.831 49.82H150.719V79.5H145.343V40.3ZM180.236 40.3H188.58L194.964 79.5H188.804L187.684 71.716V71.828H180.684L179.564 79.5H173.852L180.236 40.3ZM186.956 66.508L184.212 47.132H184.1L181.412 66.508H186.956ZM197.952 40.3H205.68L211.672 63.764H211.784V40.3H217.272V79.5H210.944L203.552 50.884H203.44V79.5H197.952V40.3Z" fill="white"/>
<path d="M221.851 40.3H238.147V45.9H228.011V56.82H235.963V62.42H228.011V79.5H221.851V40.3ZM241.101 40.3H247.261V79.5H241.101V40.3ZM256.69 45.9H250.25V40.3H269.29V45.9H262.85V79.5H256.69V45.9Z" fill="#E11D48"/>
<path d="M286 0H324C328.418 0 332 3.58172 332 8V118C332 122.418 328.418 126 324 126H286V0Z" fill="#E11D48"/>
<path d="M340 22.5H359C363.418 22.5 367 26.0817 367 30.5V95.5C367 99.9183 363.418 103.5 359 103.5H340V22.5Z" fill="#E11D48"/>
</svg>
